Coordinates
version=1
nRows=34
nColumns=19
inDegrees=yes

Units are S.I. units (second, meters, Newtons, ...)
If the header above contains a line with 'inDegrees', this indicates whether rotational values are in degrees (yes) or radians (no).

endheader
time	pelvis_tilt	pelvis_list	pelvis_rotation	pelvis_tx	pelvis_ty	pelvis_tz	hip_flexion_r	hip_adduction_r	hip_rotation_r	knee_angle_r	knee_angle_r_beta	ankle_angle_r	hip_flexion_l	hip_adduction_l	hip_rotation_l	knee_angle_l	knee_angle_l_beta	ankle_angle_l
     15.24000000	     -7.54179644	     -5.95429046	     -0.61462699	      2.39374500	      0.93452622	      1.01346396	     34.73736857	      7.89193479	    -11.40014141	     13.35317225	      0.23305682	    -10.18550429	    -16.58074526	     -3.61900225	     -2.27887724	     60.65873277	      1.05869461	    -29.95267173
     15.24666667	     -7.30329161	     -6.34540396	     -1.37044433	      2.39309485	      0.93133044	      1.01415675	     34.46052181	      8.66056114	    -11.86354578	     15.36360801	      0.26814554	     -9.05095056	    -15.37989635	     -4.28088050	     -3.48425313	     64.84761934	      1.13180447	    -30.95527750
     15.25333333	     -7.05862964	     -6.65070014	     -2.15006159	      2.39224501	      0.92782952	      1.01476456	     34.36784500	      9.23552907	    -12.34821641	     18.28346727	      0.31910670	     -7.24366490	    -14.10570264	     -4.89930342	     -4.61199628	     68.97165697	      1.20378250	    -31.77140799
     15.26000000	     -6.79443412	     -6.88875162	     -2.86677832	      2.39123465	      0.92399371	      1.01512971	     34.33606372	      9.62543035	    -12.74938393	     21.82893664	      0.38098682	     -4.86756577	    -12.75825692	     -5.49161570	     -5.56650893	     73.03256544	      1.27465873	    -32.27916384
     15.26666667	     -6.41250941	     -7.06196827	     -3.48282769	      2.39014947	      0.92002864	      1.01524351	     34.13727676	      9.86701690	    -12.95340432	     25.67098055	      0.44804313	     -2.06426169	    -11.45553713	     -6.06432152	     -6.33419688	     76.96604777	      1.34331095	    -32.32834027
     15.27333333	     -5.71931214	     -7.46122275	     -3.93529189	      2.38920185	      0.91632328	      1.01517257	     33.35014776	     10.30164518	    -13.00241606	     29.30456646	      0.51146117	      1.06461415	    -10.46388299	     -7.03611530	     -7.04778412	     80.70160848	      1.40850878	    -32.29338667
     15.28000000	     -5.88753158	     -6.98048744	     -4.33177754	      2.38755670	      0.91154712	      1.01480836	     33.67863566	      9.84525772	    -12.50437356	     33.45115558	      0.58383280	      4.39221545	     -8.14074584	     -6.86205870	     -7.02317111	     84.49725182	      1.47475525	    -31.51349633
     15.28666667	     -5.61180822	     -6.85725277	     -4.54890520	      2.38605374	      0.90749901	      1.01440897	     33.14800783	      9.75881314	    -11.97562541	     36.99315981	      0.64565244	      7.75885273	     -6.27891730	     -7.25622489	     -7.02829623	     88.02595068	      1.53634267	    -30.60156484
     15.29333333	     -5.33656013	     -6.68382053	     -4.61102987	      2.38440344	      0.90377342	      1.01390051	     32.37974583	      9.62976267	    -11.31980607	     40.13515560	      0.70049061	     11.10874477	     -4.25399998	     -7.60838179	     -6.75131452	     91.34930883	      1.59434621	    -29.38568808
     15.30000000	     -5.07622940	     -6.48745162	     -4.52929671	      2.38258619	      0.90052127	      1.01331944	     31.37189013	      9.47191984	    -10.63398310	     42.81211653	      0.74721239	     14.31364042	     -2.04252952	     -7.92572712	     -6.20898240	     94.44738363	      1.64841781	    -27.95035824
     15.30666667	     -4.88842789	     -6.27021827	     -4.31061992	      2.38065384	      0.89775400	      1.01267962	     30.17884395	      9.26762641	     -9.98801493	     44.98878118	      0.78520236	     17.31012138	      0.41535561	     -8.18372947	     -5.39799250	     97.29148989	      1.69805683	    -26.39960671
     15.31333333	     -4.69586207	     -6.06131257	     -3.96171561	      2.37866018	      0.89568755	      1.01195382	     28.68290733	      9.02080397	     -9.47969917	     46.59394194	      0.81321770	     20.02982956	      3.00676014	     -8.38302752	     -4.35715523	     99.81582038	      1.74211471	    -24.71698018
     15.32000000	     -4.42898196	     -5.85786408	     -3.53761925	      2.37672096	      0.89437868	      1.01119752	     26.82433770	      8.75676416	     -9.03283123	     47.66269647	      0.83187098	     22.42408305	      5.59090030	     -8.49234760	     -3.18278228	    101.97692998	      1.77983319	    -22.89100793
     15.32666667	     -4.41887830	     -5.61566476	     -2.98997553	      2.37480592	      0.89348189	      1.01036988	     25.00366356	      8.39014106	     -8.80274560	     48.23922756	      0.84193335	     24.44557221	      8.58088439	     -8.43224273	     -1.77731123	    103.81881531	      1.81198015	    -21.11872182
     15.33333333	     -4.55661618	     -5.34518567	     -2.39427013	      2.37306986	      0.89312845	      1.00954595	     23.08612522	      7.99800783	     -8.64634909	     48.31285403	      0.84321837	     26.05559886	     11.75417414	     -8.20582197	     -0.29724866	    105.27125057	      1.83732993	    -19.40686728
     15.34000000	     -4.70344430	     -5.03630845	     -1.79849325	      2.37158843	      0.89341180	      1.00886417	     20.94864948	      7.57528289	     -8.57062147	     47.93950262	      0.83670216	     27.26006110	     14.88232908	     -7.84467516	      1.11544127	    106.30086887	      1.85530016	    -17.59136584
     15.34666667	     -4.98752810	     -4.73102478	     -1.14967719	      2.37044164	      0.89416490	      1.00819267	     18.74011952	      7.17268884	     -8.59149429	     47.12044282	      0.82240687	     27.95407354	     18.08731435	     -7.34563754	      2.53467213	    106.93310871	      1.86633483	    -15.82731319
     15.35333333	     -5.24006733	     -4.32557731	     -0.57931752	      2.36970671	      0.89556391	      1.00778214	     16.30888891	      6.72205468	     -8.58322291	     45.93034312	      0.80163571	     28.19553073	     21.08026357	     -6.71436278	      3.68080178	    107.11386048	      1.86948954	    -13.86211664
     15.36000000	     -5.53694564	     -3.89469942	      0.02032169	      2.36945023	      0.89747421	      1.00751359	     13.74602808	      6.28681007	     -8.64376194	     44.35228883	      0.77409347	     27.88030427	     23.95680948	     -6.00341972	      4.68879968	    106.88989914	      1.86558068	    -11.91614808
     15.36666667	     -5.89283726	     -3.34942811	      0.54731004	      2.36967437	      0.89981831	      1.00745314	     11.12538243	      5.78975558	     -8.65927893	     42.49524838	      0.74168200	     27.02008301	     26.67738575	     -5.18126410	      5.38247472	    106.26106567	      1.85460546	     -9.84861916
     15.37333333	     -6.27857287	     -2.71866040	      1.04713776	      2.37033435	      0.90259825	      1.00757415	      8.43340861	      5.24438588	     -8.70233738	     40.34826230	      0.70421002	     25.53398908	     29.22171552	     -4.30711195	      5.79798880	    105.25568642	      1.83705828	     -7.76827558
     15.38000000	     -6.27963584	     -2.00772484	      1.53093807	      2.37163933	      0.90628301	      1.00788251	      5.16291626	      4.69548467	     -8.72524916	     37.79239041	      0.65960164	     23.46809628	     31.06246805	     -3.44534710	      5.90625426	    103.81825081	      1.81197030	     -5.75890284
     15.38666667	     -6.57453972	     -1.17396999	      1.97149782	      2.37321725	      0.90991189	      1.00823059	      2.24637254	      4.01150626	     -8.83399720	     35.17479721	      0.61391603	     20.77848790	     33.04748022	     -2.49934639	      5.71354279	    102.09099271	      1.78182396	     -3.73862355
     15.39333333	     -7.08394929	     -0.30626529	      2.45525894	      2.37503994	      0.91350472	      1.00850407	     -0.39539153	      3.28026884	     -9.14925190	     32.48561763	      0.56698099	     17.49391131	     35.11383870	     -1.53489203	      5.33604949	    100.10201023	      1.74710967	     -1.73106627
     15.40000000	     -7.24410388	      0.72306762	      2.78797577	      2.37725572	      0.91781909	      1.00885988	     -3.41589904	      2.43076686	     -9.33285940	     29.62326878	      0.51702358	     13.66633598	     36.50576470	     -0.57066834	      4.53475071	     97.71203567	      1.70539674	      0.01497651
     15.40666667	     -7.72990520	      1.66892446	      3.24936300	      2.37952308	      0.92179401	      1.00892191	     -5.95606409	      1.64468466	     -9.83376878	     26.82486512	      0.46818222	      9.35995958	     38.15784532	      0.38104824	      3.74292986	     95.12956581	      1.66032414	      1.63314649
     15.41333333	     -8.18489763	      2.64533526	      3.63805379	      2.38191132	      0.92590653	      1.00887664	     -8.39487897	      0.82244189	    -10.35919891	     24.10732334	      0.42075217	      4.71116249	     39.57893874	      1.28958817	      2.73317563	     92.25436931	      1.61014249	      3.01955536
     15.42000000	     -8.70034536	      3.54060004	      4.06184708	      2.38430015	      0.92991964	      1.00859412	    -10.60424425	      0.08626361	    -10.98936367	     21.53466340	      0.37585078	     -0.15516966	     40.92146445	      2.14275529	      1.70455219	     89.14869669	      1.55593828	      4.14919782
     15.42666667	     -9.31013289	      4.32216356	      4.49542731	      2.38661783	      0.93376424	      1.00800044	    -12.50827353	     -0.54356148	    -11.61043212	     19.19697772	      0.33505047	     -5.02464504	     42.22034896	      2.94142675	      0.70367056	     85.81193490	      1.49770080	      5.00100575
     15.43333333	     -9.85252608	      5.02821430	      4.87133649	      2.38892745	      0.93756607	      1.00725876	    -14.28156290	     -1.11112230	    -12.15095079	     17.13319277	      0.29903063	     -9.72622232	     43.27216044	      3.63174648	     -0.35812423	     82.22890574	      1.43516515	      5.65286292
     15.44000000	    -10.48694053	      5.51335432	      5.33096107	      2.39100950	      0.94102614	      1.00614237	    -15.71366461	     -1.45992550	    -12.65656161	     15.43177939	      0.26933536	    -14.11053275	     44.31831036	      4.25243374	     -1.20980343	     78.46824583	      1.36952925	      5.99321070
     15.44666667	    -11.07837814	      5.85549407	      5.75795393	      2.39292149	      0.94428098	      1.00481579	    -16.94795778	     -1.68693963	    -12.95472224	     14.14182280	      0.24682137	    -17.95734456	     45.17182448	      4.77723508	     -1.99314235	     74.50465305	      1.30035150	      6.14442630
     15.45333333	    -11.58056974	      6.05589382	      6.16228823	      2.39460987	      0.94731614	      1.00327786	    -18.03120420	     -1.78938328	    -13.01590677	     13.30007903	      0.23213017	    -21.16305721	     45.79276658	      5.21720204	     -2.68362891	     70.34939417	      1.22782856	      6.14892826
     15.46000000	    -12.07839230	      6.07836857	      6.57589258	      2.39601753	      0.94996313	      1.00153966	    -18.84722215	     -1.73852764	    -12.86516681	     12.98847342	      0.22669163	    -23.59886899	     46.29641605	      5.56641997	     -3.24388477	     66.04676172	      1.15273345	      5.94947218
